<svg id="Layer_1" data-name="Layer 1" xmlns="http://www.w3.org/2000/svg" viewBox="0 0 255.12 188.14"><defs><style>.cls-1{fill:#231f20;}</style></defs><title>EhB-logo-1-kleurig</title><path class="cls-1" d="M238.25,133.87A35.36,35.36,0,0,1,228.09,141h40.44a63.91,63.91,0,0,0,7.76-21.26H246.91a35.32,35.32,0,0,1-8.66,14.14m25.26-55.52L265,76.9a67.75,67.75,0,0,0-8.77-11.43c-25.1-25.09-63.12-27.76-88.63-2.27A64.24,64.24,0,0,0,157.46,141h40.45a35.71,35.71,0,0,1-10.16-57.6c10.88-10.86,24.68-12.2,36.62-6.31l-27.65,27.64,20.2,20.19,27-27Z" transform="translate(-85.04 -45.32)"/><path class="cls-1" d="M110.23,183.35H95c.79-3.58,4-5.66,7.6-5.66s6.81,2.08,7.59,5.66M120,190a13,13,0,0,0,.24-2.63c0-10-7.42-18.06-17.66-18.06a17.65,17.65,0,0,0,.18,35.3c7.33,0,13.12-4.59,16.09-10.94H108.4a7,7,0,0,1-5.64,2.59c-3.92,0-7.23-2.33-7.84-6.26Zm21.18-11.3h2v-9.31c-1.29,0-4.37.08-4.37.08-3.61.14-7.63,1.36-10,4.23-2.71,3.34-3,6.08-3,10.19v19.8h10V185.41c0-3.75.84-6.68,5.36-6.68M172.31,187a8.35,8.35,0,1,1-8.44-8.41,8.21,8.21,0,0,1,8.44,8.41m0,16.57h10V170.47h-10V174h-.12c-2-3.28-6.09-4.65-9.77-4.65-10.06,0-16.81,8-16.81,17.65,0,9.83,6.51,17.7,16.81,17.7,3.62,0,8-1.31,9.77-4.71h.12Zm25.55-24.09c0-1.49,1.51-2.2,2.84-2.2,1.74,0,3.07.66,3.13,2.5h9.82c-.66-7-6.14-10.43-12.83-10.43-6.45,0-13,4-13,10.91,0,4.65,4,7.22,7.95,8.64,1.45.54,2.9,1,4.34,1.5,1.81.71,4.52,1.43,4.52,3.81,0,1.73-2,2.56-3.49,2.56a3.48,3.48,0,0,1-3.8-3h-9.94c.78,7.28,6.63,11,13.62,11,6.81,0,13.62-3.81,13.62-11.26,0-11.69-16.82-8.77-16.82-14m63.7,24.25h10v-19.8c0-4.11-.3-6.85-3-10.19-2.37-2.87-6.37-4.09-10-4.23,0,0-1.26-.08-2.6-.08s-2.6.08-2.6.08a15.81,15.81,0,0,0-8,2.79,15.71,15.71,0,0,0-8-2.79s-1.26-.08-2.6-.08-2.6.08-2.6.08c-3.61.14-7.62,1.36-10,4.23-2.72,3.34-3,6.08-3,10.19v19.8h10V185.41c0-3.75.84-6.75,5.36-6.75H235c4.53,0,5.37,3,5.37,6.75v18.31h10V185.41c0-3.75.84-6.75,5.36-6.75h.47c4.52,0,5.37,3,5.37,6.75Zm44.07-3.26c2.71-3.34,3-6.08,3-10.19v-19.8h-10v18.31c0,3.75-.85,6.75-5.37,6.75h-.47c-4.52,0-5.36-3-5.36-6.75V170.47h-10v19.8c0,4.11.3,6.85,3,10.19,2.37,2.87,6.38,4.09,10,4.23,0,0,1.3.08,2.6.08s2.59-.08,2.59-.08c3.63-.14,7.63-1.36,10-4.23m23.68-20.69h9.82c-.66-7-6.14-10.43-12.83-10.43-6.45,0-13,4-13,10.91,0,4.65,4,7.22,8,8.64,1.45.54,2.9,1,4.34,1.5,1.81.71,4.52,1.43,4.52,3.81,0,1.73-2,2.56-3.49,2.56a3.48,3.48,0,0,1-3.8-3h-9.94c.78,7.28,6.63,11,13.62,11,6.81,0,13.62-3.81,13.62-11.26,0-11.69-16.82-8.77-16.82-14,0-1.49,1.51-2.2,2.83-2.2,1.75,0,3.08.66,3.14,2.5" transform="translate(-85.04 -45.32)"/><polygon class="cls-1" points="10.82 187.87 10.82 181.67 4.94 181.67 4.94 187.87 2.86 187.87 2.86 173.62 4.94 173.62 4.94 179.76 10.82 179.76 10.82 173.62 12.89 173.62 12.89 187.87 10.82 187.87"/><path class="cls-1" d="M109.33,233.46a7.4,7.4,0,1,1,7.41-7.35,7.41,7.41,0,0,1-7.41,7.35m0-12.88a5.06,5.06,0,0,0-4.83,3.22,5.7,5.7,0,0,0-.51,2.27,6,6,0,0,0,.51,2.31,5.27,5.27,0,0,0,9.8-.35,5.5,5.5,0,0,0-5-7.45" transform="translate(-85.04 -45.32)"/><path class="cls-1" d="M130.35,232.77a7.54,7.54,0,0,1-3.1.69,7.4,7.4,0,1,1,6.37-10.94H131.2a5,5,0,0,0-3.89-1.94,5.49,5.49,0,0,0,0,11,5.26,5.26,0,0,0,4.91-3.54h-6.65v-1.9h9a7.2,7.2,0,0,1-4.26,6.66" transform="translate(-85.04 -45.32)"/><polygon class="cls-1" points="53.24 187.87 53.24 173.62 60.92 173.62 60.92 175.52 55.32 175.52 55.32 179.72 60.92 179.72 60.92 181.63 55.32 181.63 55.32 185.96 60.92 185.96 60.92 187.87 53.24 187.87"/><path class="cls-1" d="M153.47,233.46a4.28,4.28,0,0,1-4.39-4.49h2.08a2.34,2.34,0,0,0,2.31,2.58,2.22,2.22,0,0,0,2.29-2.4c0-1.52-1.1-1.87-2.29-2.33-2.22-.85-4-1.5-4-4.28a3.9,3.9,0,0,1,4-3.87,3.83,3.83,0,0,1,4.08,4h-2.08a1.91,1.91,0,0,0-2-2.06,2,2,0,0,0-1.91,1.94c0,3,6.28,1.22,6.28,6.63a4.16,4.16,0,0,1-4.37,4.31" transform="translate(-85.04 -45.32)"/><path class="cls-1" d="M172.32,222.58a5.12,5.12,0,0,0-4-2A5.35,5.35,0,0,0,163,226a5.45,5.45,0,0,0,5.25,5.52,5.2,5.2,0,0,0,3.89-1.88h2.56a7.32,7.32,0,0,1-6.47,3.79,7.43,7.43,0,0,1-7.31-7.45,7.31,7.31,0,0,1,7.33-7.34,7.6,7.6,0,0,1,4.35,1.39,7,7,0,0,1,2.2,2.52Z" transform="translate(-85.04 -45.32)"/><polygon class="cls-1" points="101.39 187.87 101.39 181.67 95.51 181.67 95.51 187.87 93.43 187.87 93.43 173.62 95.51 173.62 95.51 179.76 101.39 179.76 101.39 173.62 103.47 173.62 103.47 187.87 101.39 187.87"/><path class="cls-1" d="M199.9,233.46a7.4,7.4,0,1,1,7.41-7.35,7.41,7.41,0,0,1-7.41,7.35m0-12.88a5.06,5.06,0,0,0-4.83,3.22,5.69,5.69,0,0,0-.5,2.27,6,6,0,0,0,.5,2.31,5.27,5.27,0,0,0,9.8-.35,5.5,5.5,0,0,0-5-7.45" transform="translate(-85.04 -45.32)"/><path class="cls-1" d="M218,233.46a7.4,7.4,0,1,1,7.41-7.35,7.41,7.41,0,0,1-7.41,7.35m0-12.88a5.08,5.08,0,0,0-4.84,3.22,5.69,5.69,0,0,0-.5,2.27,6,6,0,0,0,.5,2.31,5.35,5.35,0,0,0,10.17-2.25,5.37,5.37,0,0,0-5.33-5.55" transform="translate(-85.04 -45.32)"/><polygon class="cls-1" points="144.37 187.87 144.37 173.62 146.45 173.62 146.45 185.96 151.4 185.96 151.4 187.87 144.37 187.87"/><path class="cls-1" d="M262.69,230.77c-.79,1.81-2.54,2.42-4.39,2.42h-4.25V218.94h3.69c1.81,0,3.47.62,4.16,2.39a4.23,4.23,0,0,1,.29,1.56,3.27,3.27,0,0,1-1.27,2.7,3.76,3.76,0,0,1,2.12,3.46,4.37,4.37,0,0,1-.35,1.72m-5-9.92h-1.57v4h1.69c1.35,0,2.29-.57,2.29-2s-1.08-2-2.41-2m2.76,6.8a2.58,2.58,0,0,0-2.33-.87h-2v4.51h2.25a2.32,2.32,0,0,0,2.58-2.24,2.28,2.28,0,0,0-.5-1.4" transform="translate(-85.04 -45.32)"/><path class="cls-1" d="M273.78,227.61a4.29,4.29,0,0,1-1.39.27l4,5.31h-2.6l-4.7-6.6h0v6.6H267V218.94h4.41a5.24,5.24,0,0,1,3.8,1.2,4.65,4.65,0,0,1,1.31,3.37,4,4,0,0,1-2.7,4.1m-2.54-6.76H269v5.45h1.43c1.85,0,3.93-.52,3.93-2.79,0-1.81-1.51-2.66-3.16-2.66" transform="translate(-85.04 -45.32)"/><path class="cls-1" d="M288.43,232.25a5.19,5.19,0,0,1-6.66,0,4.72,4.72,0,0,1-1.45-3.66v-9.65h2.08v9.59c0,1.7.93,3,2.7,3s2.69-1.32,2.69-3v-9.59h2.08v9.65a4.71,4.71,0,0,1-1.44,3.66" transform="translate(-85.04 -45.32)"/><path class="cls-1" d="M298,233.46a4.28,4.28,0,0,1-4.39-4.49h2.08a2.33,2.33,0,0,0,2.31,2.58,2.22,2.22,0,0,0,2.29-2.4c0-1.52-1.1-1.87-2.29-2.33-2.22-.85-4-1.5-4-4.28a3.9,3.9,0,0,1,4-3.87,3.84,3.84,0,0,1,4.08,4H300a1.91,1.91,0,0,0-2-2.06,2,2,0,0,0-1.91,1.94c0,3,6.28,1.22,6.28,6.63a4.16,4.16,0,0,1-4.37,4.31" transform="translate(-85.04 -45.32)"/><path class="cls-1" d="M309.81,233.46a4.28,4.28,0,0,1-4.39-4.49h2.08a2.34,2.34,0,0,0,2.31,2.58,2.22,2.22,0,0,0,2.3-2.4c0-1.52-1.1-1.87-2.3-2.33-2.21-.85-4-1.5-4-4.28a3.9,3.9,0,0,1,4-3.87,3.84,3.84,0,0,1,4.09,4h-2.08a1.91,1.91,0,0,0-2-2.06,2,2,0,0,0-1.9,1.94c0,3,6.28,1.22,6.28,6.63a4.16,4.16,0,0,1-4.38,4.31" transform="translate(-85.04 -45.32)"/><polygon class="cls-1" points="233.05 187.87 233.05 173.62 240.73 173.62 240.73 175.52 235.13 175.52 235.13 179.72 240.73 179.72 240.73 181.63 235.13 181.63 235.13 185.96 240.73 185.96 240.73 187.87 233.05 187.87"/><polygon class="cls-1" points="245.06 187.87 245.06 173.62 247.14 173.62 247.14 185.96 252.09 185.96 252.09 187.87 245.06 187.87"/></svg>